# xmcd CD database file
#
# Track frame offsets:
#	150
#	11853
#	29480
#	40809
#	57410
#	74291
#	84597
#	97307
#	105189
#	129211
#	146699
#	162773
#	176649
#	190640
#	200137
#	213975
#
# Disc length: 3086 seconds
#
# Revision: 0
# Processed by: cddbd v1.5.2PL0 Copyright (c) Steve Scherf et al.
# Submitted via: CDex 1.70beta2
#
DISCID=e20c0c10
DTITLE=Ozvěna - K plnýmu stolu...
DYEAR=1900
DGENRE=Country
TTITLE0=Jarní
TTITLE1=Jít dál
TTITLE2=Vozy
TTITLE3=Píseň severu
TTITLE4=Čápi
TTITLE5=Podivnej sen
TTITLE6=Stůj, chvíli postůj
TTITLE7=Nic víc
TTITLE8=Nářek
TTITLE9=Strom
TTITLE10=Jižní kříž
TTITLE11=Duhová cesta
TTITLE12=Dobrý srub
TTITLE13=Kde je láska
TTITLE14=Oheň v kruhu
TTITLE15=Po řece dolů
EXTD=
EXTT0=
EXTT1=
EXTT2=
EXTT3=
EXTT4=
EXTT5=
EXTT6=
EXTT7=
EXTT8=
EXTT9=
EXTT10=
EXTT11=
EXTT12=
EXTT13=
EXTT14=
EXTT15=
PLAYORDER=
